<?xml version="1.0" encoding="UTF-8" standalone="no"?>
<svg
   version="1.1"
   width="191.99989pt"
   height="191.99989pt"
   id="svg15"
   viewBox="0 0 191.99989 191.99989"
   sodipodi:docname="gmail-seeklogo.cdr"
   xmlns:inkscape="http://www.inkscape.org/namespaces/inkscape"
   xmlns:sodipodi="http://sodipodi.sourceforge.net/DTD/sodipodi-0.dtd"
   xmlns="http://www.w3.org/2000/svg"
   xmlns:svg="http://www.w3.org/2000/svg">
  <defs
     id="defs19" />
  <sodipodi:namedview
     id="namedview17"
     pagecolor="#ffffff"
     bordercolor="#000000"
     borderopacity="0.25"
     inkscape:showpageshadow="2"
     inkscape:pageopacity="0.0"
     inkscape:pagecheckerboard="0"
     inkscape:deskcolor="#d1d1d1"
     inkscape:document-units="pt" />
  <g
     id="Layer1000">
    <path
       d="M 93.1556,88.614 C 92.2501,87.9416 91.3798,87.2963 90.4968,86.6423 L 79.9109,78.7974 C 74.6482,74.8941 69.2401,70.9337 64.0128,67.004 62.2604,65.6866 60.4943,64.398 58.7209,63.0807 57.5611,62.2193 55.837,60.9973 54.7316,60.124 54.4718,59.9188 53.5982,59.3244 53.4496,59.1401 l 85.0605,0.0031 c -0.0937,0.1248 -0.5441,0.4423 -0.6712,0.5326 -0.2149,0.1526 -0.4363,0.3141 -0.6581,0.4776 -2.1832,1.6099 -4.5437,3.297 -6.6624,4.9127 -0.8924,0.6807 -1.7729,1.2877 -2.6656,1.9648 l -2.6673,1.9635 c -0.9054,0.6453 -1.7841,1.3107 -2.6674,1.9631 -1.7775,1.3128 -3.5632,2.6246 -5.3348,3.9265 -4.8912,3.5946 -9.7681,7.246 -14.6626,10.8039 -2.001,1.4546 -4.0109,2.9962 -6.0124,4.4294 -0.1549,0.1109 -0.5102,0.4083 -0.68,0.4684 z m -36.7844,44.2734 v -0.0425 c -0.0706,-0.5472 -0.0171,-27.2077 -0.0172,-27.4263 l 2e-4,-26.6516 c 0,-0.1366 6e-4,-0.2731 -0.0012,-0.4097 -7e-4,-0.053 -0.0059,-0.1824 -0.001,-0.2276 l 0.058,-0.1765 2.4194,1.6818 c 1.1917,0.7987 2.4625,1.7513 3.6643,2.5539 0.4173,0.2786 0.8243,0.5602 1.233,0.8559 0.8265,0.5981 1.6541,1.1245 2.4657,1.7112 0.7975,0.5766 1.611,1.1279 2.4309,1.6994 0.832,0.5798 1.6376,1.1431 2.4648,1.7123 l 17.1848,11.9595 c 0.8054,0.5812 1.6487,1.1238 2.465,1.7105 1.0451,0.7512 4.2106,2.8574 4.9127,3.4345 0.2496,0.1281 0.1643,0.146 0.6539,-0.1945 l 6.7978,-4.6876 c 0.8534,-0.557 1.6264,-1.1444 2.4755,-1.7006 1.9804,-1.2972 4.1647,-2.9411 6.179,-4.2619 0.4138,-0.2713 0.8125,-0.553 1.2369,-0.8517 2.4272,-1.7085 5.0701,-3.4271 7.4497,-5.1257 3.1788,-2.2691 6.6856,-4.5387 9.8875,-6.8169 l 3.7103,-2.5548 c 0.2727,-0.1798 1.0654,-0.7656 1.2751,-0.8602 0.0779,2.1113 0.007,4.3691 0.007,6.4965 -10e-5,2.6438 -0.0491,19.234 0.0395,19.4463 l -0.006,-25.9844 10.8338,-7.7402 c 0.2399,-0.1694 0.5016,-0.3685 0.7487,-0.5239 0,-1.2285 0.1169,-2.5161 -0.0845,-3.6825 -0.2556,-1.4797 -0.8616,-2.9747 -1.8378,-4.1102 -0.6393,-0.7436 -1.4142,-1.3656 -2.2442,-1.8868 -0.2999,-0.1883 -0.6953,-0.3534 -1.0407,-0.5028 -0.1871,-0.0808 -0.3738,-0.1504 -0.557,-0.2147 -1.5376,-0.5391 -3.4147,-0.4082 -5.0389,-0.4082 -26.917,0 -53.834,0 -80.751,0 -1.8329,0 -2.6051,-0.1104 -4.2967,0.3333 -1.2819,0.3362 -2.4607,1.0408 -3.4082,1.9485 -0.0407,0.039 -0.0564,0.0511 -0.0952,0.0863 l -0.0933,0.0883 c -0.6571,0.6866 -0.7073,0.7439 -1.2118,1.5121 -0.1099,0.1672 -0.1963,0.3241 -0.2887,0.483 -0.105,0.1805 -0.1497,0.3257 -0.2439,0.5279 -0.2429,0.5212 -0.4588,1.1453 -0.5623,1.7056 -0.2356,1.2756 -0.1579,3.0536 -0.1481,4.4366 l -9e-4,52.3973 c 0,1.0062 -0.0718,2.1488 0.0577,3.075 0.1754,1.2541 0.5891,2.2119 1.2386,3.3015 0.7099,1.1908 1.6494,1.9348 2.7614,2.6862 0.3227,0.2181 0.7814,0.4083 1.1433,0.5822 0.1085,0.0521 0.0345,0.0224 0.1225,0.0515 l 0.2757,0.0934 c 1.7368,0.636 3.8694,0.4713 5.7364,0.4713 z"
       style="fill:#d45044;fill-rule:evenodd"
       id="path2" />
    <path
       d="m 95.8283,90.5857 c 0.1698,-0.0601 0.5251,-0.3575 0.68,-0.4684 2.0015,-1.4332 4.0114,-2.9748 6.0124,-4.4294 4.8945,-3.5579 9.7714,-7.2093 14.6626,-10.8039 1.7716,-1.3019 3.5573,-2.6137 5.3348,-3.9265 0.8833,-0.6524 1.762,-1.3178 2.6674,-1.9631 l 2.6673,-1.9635 c 0.8927,-0.6771 1.7732,-1.2841 2.6656,-1.9648 2.1187,-1.6157 4.4792,-3.3028 6.6624,-4.9127 0.2218,-0.1635 0.4432,-0.325 0.6581,-0.4776 0.1271,-0.0903 0.5775,-0.4078 0.6712,-0.5326 L 53.4496,59.1401 c 0.1486,0.1843 1.0222,0.7787 1.282,0.9839 1.1054,0.8733 2.8295,2.0953 3.9893,2.9567 1.7734,1.3173 3.5395,2.6059 5.2919,3.9233 5.2273,3.9297 10.6354,7.8901 15.8981,11.7934 l 10.5859,7.8449 c 0.883,0.654 1.7533,1.2993 2.6588,1.9717 z"
       style="fill:#f7f5ec;fill-rule:evenodd"
       id="path4" />
    <path
       d="m 56.3712,132.8449 0.0444,0.0119 c 0.0078,-0.0101 0.0199,-0.0378 0.0243,-0.0296 0.0043,0.008 0.0185,-0.0226 0.0245,-0.0286 l 1.1762,-0.8333 c 1.2355,-0.8226 2.4391,-1.7326 3.6924,-2.5721 l 4.9281,-3.4248 c 1.6304,-1.1677 3.2731,-2.256 4.9228,-3.4299 3.2437,-2.3084 6.5979,-4.5323 9.8528,-6.8532 l 3.694,-2.5708 c 0.3941,-0.2822 0.8155,-0.5811 1.2321,-0.8559 l 9.8655,-6.8458 c 0.2233,0.0659 0.9979,0.6654 1.2567,0.8372 1.23,0.8165 2.4682,1.7538 3.6945,2.57 0.8325,0.5541 1.6466,1.1416 2.4643,1.7125 l 17.2746,12.0058 c 0.43,0.3068 0.8219,0.5669 1.2295,0.8587 l 2.4632,1.7132 c 0.4161,0.2729 0.8371,0.5724 1.2324,0.8556 0.934,0.6693 9.7628,6.738 9.83,6.8743 0.0811,-0.0766 0.0832,0.0684 0.0758,-0.4516 l 0.0133,-28.2274 c -0.0886,-0.2123 -0.0396,-16.8025 -0.0395,-19.4463 0,-2.1274 0.0711,-4.3852 -0.007,-6.4965 -0.2097,0.0946 -1.0024,0.6804 -1.2751,0.8602 l -3.7103,2.5548 c -3.2019,2.2782 -6.7087,4.5478 -9.8875,6.8169 -2.3796,1.6986 -5.0225,3.4172 -7.4497,5.1257 -0.4244,0.2987 -0.8231,0.5804 -1.2369,0.8517 -2.0143,1.3208 -4.1986,2.9647 -6.179,4.2619 -0.8491,0.5562 -1.6221,1.1436 -2.4755,1.7006 l -6.7978,4.6876 c -0.4896,0.3405 -0.4043,0.3226 -0.6539,0.1945 -1.6059,1.1443 -3.285,2.2374 -4.9074,3.3693 -0.814,0.5679 -1.636,1.1131 -2.4472,1.6833 -2.0078,1.4114 -4.0989,2.789 -6.1092,4.196 -2.0289,1.42 -4.141,2.8097 -6.1619,4.2336 -1.6265,1.146 -3.2568,2.2232 -4.9015,3.3607 l -6.1088,4.1965 c -0.4329,0.3022 -0.7934,0.5624 -1.235,0.8527 l -7.389,5.0612 0.0194,-54.2723 -0.058,0.1765 c -0.0049,0.0452 3e-4,0.1746 0.001,0.2276 0.0018,0.1366 0.0012,0.2731 0.0012,0.4097 l -2e-4,26.6516 c 1e-4,0.2186 -0.0534,26.8791 0.0172,27.4263 z"
       style="fill:#b7b6ad;fill-rule:evenodd"
       id="path6" />
    <path
       d="m 56.4156,132.8568 78.8579,-0.0167 c -0.0672,-0.1363 -8.896,-6.205 -9.83,-6.8743 -0.3953,-0.2832 -0.8163,-0.5827 -1.2324,-0.8556 l -2.4632,-1.7132 c -0.4076,-0.2918 -0.7995,-0.5519 -1.2295,-0.8587 l -17.2746,-12.0058 c -0.8177,-0.5709 -1.6318,-1.1584 -2.4643,-1.7125 -1.2263,-0.8162 -2.4645,-1.7535 -3.6945,-2.57 -0.2588,-0.1718 -1.0334,-0.7713 -1.2567,-0.8372 l -9.8655,6.8458 c -0.4166,0.2748 -0.838,0.5737 -1.2321,0.8559 l -3.694,2.5708 c -3.2549,2.3209 -6.6091,4.5448 -9.8528,6.8532 -1.6497,1.1739 -3.2924,2.2622 -4.9228,3.4299 l -4.9281,3.4248 c -1.2533,0.8395 -2.4569,1.7495 -3.6924,2.5721 l -1.1762,0.8333 c -0.006,0.006 -0.0202,0.0367 -0.0245,0.0286 -0.0044,-0.008 -0.0165,0.0195 -0.0243,0.0296 z"
       style="fill:#e7e3d6;fill-rule:evenodd"
       id="path8" />
    <path
       d="m 95.6506,105.2722 c -0.7021,-0.5771 -3.8676,-2.6833 -4.9127,-3.4345 -0.8163,-0.5867 -1.6596,-1.1293 -2.465,-1.7105 L 71.0881,88.1677 C 70.2609,87.5985 69.4553,87.0352 68.6233,86.4554 67.8034,85.8839 66.9899,85.3326 66.1924,84.756 65.3808,84.1693 64.5532,83.6429 63.7267,83.0448 63.318,82.7491 62.911,82.4675 62.4937,82.1889 61.2919,81.3863 60.0211,80.4337 58.8294,79.635 l -2.4194,-1.6818 -0.0194,54.2723 7.389,-5.0612 c 0.4416,-0.2903 0.8021,-0.5505 1.235,-0.8527 l 6.1088,-4.1965 c 1.6447,-1.1375 3.275,-2.2147 4.9015,-3.3607 2.0209,-1.4239 4.133,-2.8136 6.1619,-4.2336 2.0103,-1.407 4.1014,-2.7846 6.1092,-4.196 0.8112,-0.5702 1.6332,-1.1154 2.4472,-1.6833 1.6224,-1.1319 3.3015,-2.225 4.9074,-3.3693 z"
       style="fill:#e7e3d6;fill-rule:evenodd"
       id="path10" />
    <path
       d="m 135.3626,104.1611 -0.0133,28.2274 c 0.007,0.52 0.005,0.375 -0.0758,0.4516 l -78.8579,0.0167 -0.0444,-0.0119 v 0.0425 h 79.2652 c 1.7662,0.002 4.8526,-0.2889 6.4063,-0.8111 0.4574,-0.1538 1.2822,-0.4605 1.6922,-0.7138 1.0534,-0.6507 1.9211,-1.4774 2.4324,-2.6388 l 0.0178,-0.0479 c 0.4294,-1.2115 0.5825,-1.6958 0.7042,-2.9662 l 0.0949,-17.3852 c 0,-3.2263 -0.0454,-6.3085 -0.0454,-9.5347 V 69.9126 c -0.2471,0.1554 -0.5088,0.3545 -0.7487,0.5239 l -10.8338,7.7402 z"
       style="fill:#c03b2c;fill-rule:evenodd"
       id="path12" />
  </g>
</svg>
