<?xml version="1.0" encoding="UTF-8"?>
<!DOCTYPE svg PUBLIC "-//W3C//DTD SVG 1.1//EN" "http://www.w3.org/Graphics/SVG/1.1/DTD/svg11.dtd">
<!-- Creator: CorelDRAW X7 -->
<svg xmlns="http://www.w3.org/2000/svg" xml:space="preserve" width="153.844mm" height="153.844mm" version="1.1" style="shape-rendering:geometricPrecision; text-rendering:geometricPrecision; image-rendering:optimizeQuality; fill-rule:evenodd; clip-rule:evenodd"
viewBox="0 0 15384 15384"
 xmlns:xlink="http://www.w3.org/1999/xlink">
 <defs>
  <style type="text/css">
   <![CDATA[
    .fil4 {fill:none}
    .fil2 {fill:#FEFEFE}
    .fil0 {fill:#DE5145}
    .fil1 {fill:black;fill-opacity:0.250980}
    .fil3 {fill:#FEFEFE;fill-opacity:0.309804}
   ]]>
  </style>
 </defs>
 <g id="Layer_x0020_1">
  <metadata id="CorelCorpID_0Corel-Layer"/>
  <g id="_2991427111936">
   <path class="fil0" d="M4309 2083l6766 0c1225,0 2227,1002 2227,2226l0 6766c0,1225 -1002,2227 -2227,2227l-6766 0c-1224,0 -2226,-1002 -2226,-2227l0 -6766c0,-1224 1002,-2226 2226,-2226z"/>
   <path class="fil1" d="M7050 6477l762 -719c-498,-457 -1162,-736 -1891,-736 -1546,0 -2799,1254 -2799,2801 0,1547 1253,2801 2799,2801 835,0 1583,-344 2071,-917 528,-620 730,-1452 590,-2328l-306 0 -661 0 -1681 0 0 965 1587 0c-48,260 -125,420 -273,627 -321,375 -796,613 -1327,613 -967,0 -1750,-789 -1750,-1761 0,-973 783,-1761 1750,-1761 430,0 825,156 1129,415zm3296 132l789 0 0 802 801 0 0 789 -801 0 0 802 -789 0 0 -802 -802 0 0 -789 802 0 0 -802z"/>
   <path class="fil2" d="M7214 6347l762 -720c-499,-457 -1163,-736 -1892,-736 -1546,0 -2799,1254 -2799,2801 0,1547 1253,2801 2799,2801 835,0 1583,-343 2072,-917 527,-620 729,-1451 589,-2328l-306 0 -660 0 -1682 0 0 966 1588 0c-49,260 -125,420 -274,627 -321,375 -796,612 -1327,612 -967,0 -1750,-788 -1750,-1761 0,-972 783,-1761 1750,-1761 431,0 825,157 1130,416zm3295 132l789 0 0 801 802 0 0 790 -802 0 0 801 -789 0 0 -801 -802 0 0 -790 802 0 0 -801z"/>
   <path class="fil3" d="M10822 3000c852,0 1549,707 1549,1570l0 6500c0,864 -697,1570 -1549,1570l514 0c852,0 1549,-706 1549,-1570l0 -7021c0,-863 -697,-1570 -1549,-1570l-6927 0c-852,0 -1549,707 -1549,1570l0 521c0,-863 697,-1570 1549,-1570l6413 0z"/>
  </g>
  <rect class="fil4" width="15384" height="15384"/>
 </g>
</svg>
